<?xml version="1.0" encoding="UTF-8" standalone="no"?>
<!-- Created with Inkscape (http://www.inkscape.org/) -->

<svg
   width="153.84502mm"
   height="129.82268mm"
   viewBox="0 0 153.84502 129.82268"
   version="1.1"
   id="svg5"
   xml:space="preserve"
   xmlns:inkscape="http://www.inkscape.org/namespaces/inkscape"
   xmlns:sodipodi="http://sodipodi.sourceforge.net/DTD/sodipodi-0.dtd"
   xmlns="http://www.w3.org/2000/svg"
   xmlns:svg="http://www.w3.org/2000/svg"><sodipodi:namedview
     id="namedview7"
     pagecolor="#ffffff"
     bordercolor="#666666"
     borderopacity="1.0"
     inkscape:showpageshadow="2"
     inkscape:pageopacity="0.0"
     inkscape:pagecheckerboard="0"
     inkscape:deskcolor="#d1d1d1"
     inkscape:document-units="mm"
     showgrid="false" /><defs
     id="defs2" /><g
     inkscape:label="Lager 1"
     inkscape:groupmode="layer"
     id="layer1"
     transform="translate(-31.704076,-134.78773)"><g
       id="g403"
       transform="translate(-289.21011,-88.978781)"><path
         style="fill:#79b5fd;stroke-width:0.352778"
         d="m 342.26586,352.58405 -0.66818,-0.93559 0.82497,0.78395 c 0.45373,0.43118 0.75441,0.85219 0.66818,0.93559 -0.0862,0.0834 -0.45747,-0.26938 -0.82497,-0.78395 z m 102.44457,0.67274 c 0,-0.18258 0.15693,-0.42895 0.34873,-0.54749 0.19998,-0.1236 0.25912,0.018 0.13865,0.33195 -0.23452,0.61116 -0.48738,0.72298 -0.48738,0.21554 z m 0.70555,-1.21235 c 0,-0.0733 0.27781,-0.35107 0.61736,-0.61736 0.55953,-0.43881 0.57201,-0.42634 0.1332,0.13319 -0.46086,0.58764 -0.75056,0.77452 -0.75056,0.48417 z m 1.05833,-1.41111 c 0,-0.0733 0.27782,-0.35107 0.61737,-0.61737 0.55952,-0.43881 0.572,-0.42633 0.13319,0.1332 -0.46086,0.58764 -0.75056,0.77452 -0.75056,0.48417 z m -110.78427,-4.36473 -1.92822,-2.02847 2.02847,1.92823 c 1.88451,1.79138 2.19007,2.12872 1.92822,2.12872 -0.0551,0 -0.96794,-0.91282 -2.02847,-2.02848 z m 112.54816,1.89528 c 0,-0.0733 0.27782,-0.35107 0.61736,-0.61736 0.55953,-0.43881 0.57201,-0.42633 0.1332,0.13319 -0.46086,0.58764 -0.75056,0.77452 -0.75056,0.48417 z m 1.76389,-2.46944 c 0,-0.0733 0.27781,-0.35107 0.61736,-0.61736 0.55953,-0.43881 0.57201,-0.42634 0.1332,0.13319 -0.46086,0.58764 -0.75056,0.77452 -0.75056,0.48417 z m 2.46945,-3.52778 c 0,-0.0733 0.27781,-0.35107 0.61736,-0.61736 0.55952,-0.43881 0.572,-0.42633 0.13319,0.13319 -0.46086,0.58764 -0.75055,0.77452 -0.75055,0.48417 z m -124.8903,-3.65917 -3.34442,-3.43958 3.43958,3.34442 c 3.19465,3.10627 3.60006,3.53475 3.34442,3.53475 -0.0523,0 -1.60015,-1.54782 -3.43958,-3.43959 z m 126.30141,1.5425 c 0,-0.0732 0.27781,-0.35106 0.61736,-0.61736 0.55952,-0.43881 0.572,-0.42633 0.13319,0.1332 -0.46086,0.58764 -0.75055,0.77451 -0.75055,0.48416 z m 1.76389,-2.33625 c 0.41447,-0.58208 0.83297,-1.05833 0.92999,-1.05833 0.097,0 -0.16274,0.47625 -0.57722,1.05833 -0.41447,0.58209 -0.83297,1.05834 -0.92999,1.05834 -0.097,0 0.16274,-0.47625 0.57722,-1.05834 z m 1.05833,-1.5443 c 0,-0.0733 0.27781,-0.35107 0.61736,-0.61736 0.55953,-0.43881 0.572,-0.42634 0.1332,0.13319 -0.46086,0.58764 -0.75056,0.77452 -0.75056,0.48417 z m -135.15889,-3.30639 c -0.43881,-0.55953 -0.42633,-0.57201 0.1332,-0.1332 0.33955,0.2663 0.61736,0.54411 0.61736,0.61736 0,0.29035 -0.2897,0.10348 -0.75056,-0.48416 z m 137.62833,-0.22139 c 0,-0.0733 0.27782,-0.35107 0.61736,-0.61736 0.55953,-0.43881 0.57201,-0.42633 0.1332,0.13319 -0.46086,0.58764 -0.75056,0.77452 -0.75056,0.48417 z M 330.32223,331.0994 c 5.28726,-0.0549 13.93913,-0.0549 19.22639,0 5.28726,0.0549 0.96132,0.0998 -9.61319,0.0998 -10.57452,0 -14.90045,-0.0449 -9.6132,-0.0998 z m 133.43819,-4.85093 c 0.45571,-0.48507 0.90792,-0.88195 1.00494,-0.88195 0.097,0 -0.19646,0.39688 -0.65216,0.88195 -0.4557,0.48506 -0.90792,0.88194 -1.00493,0.88194 -0.097,0 0.19645,-0.39688 0.65215,-0.88194 z m 1.05834,-1.48551 c 0,-0.20261 0.27781,-0.58626 0.61736,-0.85255 0.57106,-0.44786 0.57855,-0.43125 0.0998,0.22139 -0.28464,0.38805 -0.56245,0.7717 -0.61736,0.85255 -0.0549,0.0808 -0.0998,-0.0188 -0.0998,-0.22139 z m 1.05833,-1.6463 c 0,-0.0733 0.27781,-0.35107 0.61736,-0.61736 0.55953,-0.43881 0.57201,-0.42633 0.1332,0.13319 -0.46086,0.58764 -0.75056,0.77452 -0.75056,0.48417 z m 1.76389,-2.46945 c 0,-0.0732 0.27781,-0.35106 0.61736,-0.61736 0.55953,-0.43881 0.57201,-0.42633 0.1332,0.1332 -0.46086,0.58764 -0.75056,0.77452 -0.75056,0.48416 z m 3.88056,-5.64444 c 0,-0.0732 0.27781,-0.35107 0.61736,-0.61736 0.55952,-0.43881 0.572,-0.42633 0.13319,0.13319 -0.46086,0.58764 -0.75055,0.77452 -0.75055,0.48417 z m 1.76388,-2.33625 c 0.41448,-0.58208 0.83298,-1.05833 0.92999,-1.05833 0.097,0 -0.16273,0.47625 -0.57721,1.05833 -0.41448,0.58208 -0.83297,1.05833 -0.92999,1.05833 -0.097,0 0.16274,-0.47625 0.57721,-1.05833 z M 344.04686,267.06999 c 0.09,-0.14552 11.46511,-0.2713 25.27814,-0.27951 l 25.11459,-0.0149 0.73123,-1.13159 c 0.90791,-1.40502 2.99665,-4.40942 8.26717,-11.89132 9.86556,-14.00493 12.22521,-17.35384 15.03831,-21.34306 1.64189,-2.32833 3.65218,-5.22221 4.46733,-6.43085 l 1.48207,-2.19752 25.13542,-0.007 c 16.33746,-0.005 25.13542,0.11476 25.13542,0.3415 0,0.19186 -0.69486,1.26342 -1.54412,2.38125 -0.84927,1.11782 -2.87333,3.94788 -4.49792,6.28902 -3.01115,4.33926 -4.71944,6.77006 -11.21022,15.95157 -2.01866,2.8555 -4.70459,6.69994 -5.96871,8.54321 -1.26412,1.84326 -3.38167,4.81874 -4.70567,6.61218 l -2.40727,3.2608 -50.23966,0.0906 c -27.6318,0.0498 -50.09453,-0.50374 -50.00459,-0.64924 z"
         id="path417"
         sodipodi:nodetypes="scsssssssssssssssscsssssssssssssssscssssssssssssssssssssssssssssssssssssssssssssssssssssssscscssssccsssssscscc" /><path
         style="fill:#e944f3;stroke-width:0.352778"
         d="m 344.22756,266.50089 c 0.0647,-0.16749 1.70509,-2.55613 3.64537,-5.30808 7.87576,-11.17043 11.13342,-15.80227 15.16944,-21.56838 2.32833,-3.3264 5.70177,-8.10782 7.49653,-10.62538 1.79476,-2.51755 3.26319,-4.72478 3.26319,-4.90495 0,-0.19853 9.93657,-0.32758 25.22361,-0.32758 13.87299,0 25.21588,0.11906 25.20642,0.26459 -0.009,0.14552 -0.60477,1.08403 -1.32292,2.08559 -0.71814,1.00156 -2.65509,3.7462 -4.30433,6.09919 -1.64924,2.353 -4.82424,6.86481 -7.05556,10.02624 -2.23132,3.16143 -6.04132,8.57585 -8.46666,12.03204 -2.42535,3.4562 -5.26183,7.48717 -6.30329,8.95771 -1.04147,1.47054 -1.97127,2.87617 -2.06622,3.12362 -0.13772,0.35889 -5.27407,0.44991 -25.38791,0.44991 -14.00215,0 -25.16297,-0.13542 -25.09767,-0.30452 z"
         id="path415" /><path
         style="fill:#feb347;stroke-width:0.352778"
         d="m 398.89698,310.28532 c 24.3971,-0.091 24.92227,-0.1074 25.099,-0.78318 0.10489,-0.40109 -0.0629,-0.88039 -0.40044,-1.14418 -0.49599,-0.38755 -0.52935,-0.37412 -0.22817,0.0919 1.04443,1.61587 -1.3081,-1.37666 -3.41328,-4.34185 -1.34454,-1.89381 -2.35431,-3.58941 -2.24394,-3.76799 0.11037,-0.17858 0.0148,-0.43957 -0.21237,-0.57997 -0.28247,-0.17458 -0.31864,-0.0986 -0.11442,0.24021 0.25495,0.42303 0.20899,0.42273 -0.31433,-0.002 -0.33711,-0.27362 -0.53205,-0.70828 -0.43319,-0.96591 0.0989,-0.25762 -0.013,-0.43063 -0.24853,-0.38445 -0.23555,0.0462 -0.40726,-0.18762 -0.38158,-0.51956 0.0257,-0.33194 -0.0801,-0.57007 -0.23503,-0.52917 -0.40361,0.10653 -3.21238,-3.97014 -2.98683,-4.3351 0.10344,-0.16736 0.002,-0.41916 -0.22498,-0.55956 -0.28247,-0.17458 -0.31864,-0.0987 -0.11442,0.24021 0.25495,0.42303 0.20899,0.42273 -0.31432,-0.002 -0.33712,-0.27362 -0.53328,-0.7051 -0.43591,-0.95884 0.0974,-0.25375 7.1e-4,-0.57034 -0.21484,-0.70354 -0.25381,-0.15687 -0.29132,-0.0795 -0.10647,0.21959 0.19452,0.31476 0.14806,0.37691 -0.14594,0.19522 -0.23723,-0.14662 -0.35057,-0.47704 -0.25186,-0.73428 0.0987,-0.25722 -0.0889,-0.67773 -0.41692,-0.93445 -0.51384,-0.40215 -0.54756,-0.39121 -0.24362,0.0791 0.19403,0.3002 -0.005,0.14145 -0.44136,-0.35278 -0.43678,-0.49423 -0.71641,-1.10528 -0.6214,-1.3579 0.095,-0.25261 0.0411,-0.3779 -0.1199,-0.27843 -0.40442,0.24994 -1.89979,-1.83981 -1.62949,-2.27718 0.12032,-0.19468 0.009,-0.31034 -0.24843,-0.25703 -0.25696,0.0533 -0.44618,-0.17465 -0.42051,-0.50659 0.0257,-0.33194 -0.13306,-0.57006 -0.35277,-0.52916 -0.21971,0.0409 -0.39968,-0.24314 -0.39994,-0.6312 -2.5e-4,-0.38805 -0.159,-0.70799 -0.35277,-0.71096 -0.69571,-0.0106 -1.27863,-0.60485 -1.08596,-1.10693 0.12537,-0.32672 0.0486,-0.42046 -0.21229,-0.25923 -0.27133,0.16769 -0.33443,0.0591 -0.18776,-0.32315 0.12151,-0.31666 0.0446,-0.68473 -0.17094,-0.81794 -0.26038,-0.16092 -0.29167,-0.0759 -0.0933,0.25329 0.25433,0.42199 0.21009,0.42366 -0.29827,0.0113 -0.68887,-0.55878 -0.81319,-1.26946 -0.15591,-0.8912 0.2562,0.14743 0.31779,0.1192 0.14699,-0.0674 -0.16169,-0.17663 -0.47919,-0.32497 -0.70555,-0.32965 -0.22637,-0.005 -0.38777,-0.29308 -0.35866,-0.64088 0.0291,-0.34781 -0.0357,-0.54379 -0.14393,-0.43552 -0.24684,0.24703 -1.14371,-0.47393 -1.14371,-0.91918 0,-0.18173 0.19844,-0.21621 0.44097,-0.0766 0.2562,0.14744 0.31779,0.11921 0.14699,-0.0674 -0.16169,-0.17663 -0.47919,-0.32498 -0.70555,-0.32965 -0.22637,-0.005 -0.38981,-0.28079 -0.36321,-0.61357 0.0266,-0.33278 -0.0774,-0.5273 -0.23121,-0.43227 -0.36862,0.22782 -2.50278,-3.0056 -2.25181,-3.41167 0.10672,-0.17268 -0.0162,-0.27034 -0.27315,-0.21703 -0.25696,0.0533 -0.44619,-0.17465 -0.42051,-0.50659 0.0257,-0.33194 -0.13307,-0.57007 -0.35278,-0.52917 -0.2197,0.0409 -0.39967,-0.24314 -0.39993,-0.6312 -2.5e-4,-0.38805 -0.20448,-0.70555 -0.45384,-0.70555 -0.57873,0 -1.1514,-0.91047 -0.87697,-1.39427 0.11532,-0.20329 0.0798,-0.25193 -0.079,-0.1081 -0.36949,0.33472 -1.23555,-0.37343 -1.23555,-1.01027 0,-0.40823 4.02253,-0.48597 25.14574,-0.48597 h 25.14573 l 0.51885,0.74878 c 0.28537,0.41183 1.23322,1.74049 2.10635,2.95258 0.87312,1.21209 2.90818,4.08982 4.52234,6.39497 1.61415,2.30514 4.4466,6.33429 6.29431,8.95367 1.84771,2.61937 3.89941,5.55625 4.55933,6.52639 0.65993,0.97014 2.22131,3.19264 3.46975,4.93889 1.24843,1.74625 3.03366,4.28625 3.96716,5.64444 0.93351,1.35819 2.21808,3.16033 2.85461,4.00475 0.63653,0.84442 1.32257,1.8763 1.52453,2.29306 0.69591,1.43601 -1.13774,-0.91411 -4.79064,-6.14003 -3.03788,-4.34604 -7.35462,-10.4597 -17.52734,-24.82343 -3.63064,-5.1264 -7.30754,-10.22406 -7.75493,-10.75145 -0.34463,-0.40626 -1.77598,-0.45328 -8.2051,-0.26961 -4.28319,0.12237 -10.71128,0.22476 -14.28462,0.22752 -3.57335,0.003 -6.43085,0.0653 -6.35,0.13905 0.0808,0.0737 4.19511,0.23514 9.14282,0.35873 10.87485,0.27165 14.37094,0.52419 13.70657,0.99007 -0.37149,0.26051 -0.37957,0.37447 -0.0364,0.51371 0.53689,0.21785 0.59375,2.2368 0.063,2.2368 -0.48842,0 -1.38592,0.8975 -1.38592,1.38591 0,0.20789 0.23813,0.37798 0.52917,0.37798 0.29104,0 0.52917,-0.23813 0.52917,-0.52917 0,-0.29104 0.15875,-0.52917 0.35278,-0.52917 0.19402,0 0.35277,0.79375 0.35277,1.76389 0,0.97014 -0.15875,1.76389 -0.35277,1.76389 -0.19403,0 -0.35278,-0.15875 -0.35278,-0.35278 0,-0.19403 -0.23813,-0.35278 -0.52917,-0.35278 -0.29104,0 -0.52917,0.23813 -0.52917,0.52917 0,0.29104 0.23813,0.52917 0.52917,0.52917 0.29104,0 0.52917,0.23812 0.52917,0.52916 0,0.29105 0.15875,0.52917 0.35278,0.52917 0.19402,0 0.35277,0.39688 0.35277,0.88195 0,0.48507 -0.15875,0.88194 -0.35277,0.88194 -0.19403,0 -0.35278,0.39688 -0.35278,0.88194 0,0.54877 -0.19991,0.88195 -0.52917,0.88195 -0.32926,0 -0.52917,0.33318 -0.52917,0.88194 0,0.54877 -0.1999,0.88195 -0.52916,0.88195 -0.29104,0 -0.52917,0.23812 -0.52917,0.52916 0,0.29105 0.23813,0.52917 0.52917,0.52917 0.29104,0 0.52916,0.23813 0.52916,0.52917 0,0.29104 -0.23812,0.52916 -0.52916,0.52916 -0.39982,0 -0.52917,0.43118 -0.52917,1.76389 0,1.33272 0.12935,1.76389 0.52917,1.76389 0.38217,0 0.52916,-0.39197 0.52916,-1.41111 0,-1.47147 0.40442,-1.76265 1.25993,-0.90714 0.60664,0.60665 0.64897,1.15279 0.10344,1.33463 -0.56243,0.18748 -0.58989,4.24006 -0.03,4.42669 0.56546,0.18849 0.55702,2.08355 -0.0104,2.34837 -0.35278,0.16463 -0.35278,0.24694 0,0.41157 0.79067,0.36898 0.48469,1.20533 -0.44097,1.20533 -0.54877,0 -0.88194,-0.19991 -0.88194,-0.52917 0,-0.29104 -0.23813,-0.52917 -0.52917,-0.52917 -0.35278,0 -0.52917,0.35278 -0.52917,1.05834 0,0.89153 0.13794,1.05833 0.87523,1.05833 0.63935,0 0.93487,0.23768 1.09657,0.88194 0.12175,0.48507 0.3629,0.88195 0.53589,0.88195 0.17299,0 0.31453,0.15875 0.31453,0.35278 0,0.19402 -0.23812,0.35277 -0.52916,0.35277 -0.29104,0 -0.52917,0.23813 -0.52917,0.52917 0,0.29104 -0.15875,0.52917 -0.35278,0.52917 -0.19402,0 -0.35277,0.23812 -0.35277,0.52916 0,0.29104 -0.23813,0.52917 -0.52917,0.52917 -0.32926,0 -0.52917,0.33318 -0.52917,0.88194 0,0.54877 0.19991,0.88195 0.52917,0.88195 0.29104,0 0.52917,-0.23813 0.52917,-0.52917 0,-0.29104 0.14805,-0.52916 0.329,-0.52916 0.18095,0 0.42977,-0.3175 0.55294,-0.70556 0.47382,-1.49287 0.88194,-0.595 0.88194,1.94028 0,2.11666 -0.10583,2.64583 -0.52916,2.64583 -0.36958,0 -0.52917,-0.37238 -0.52917,-1.23472 0,-0.6791 -0.15875,-1.23472 -0.35278,-1.23472 -0.19402,0 -0.35277,0.3175 -0.35277,0.70555 0,0.39198 -0.23519,0.70556 -0.52917,0.70556 -0.35278,0 -0.52917,0.35278 -0.52917,1.05833 0,0.88589 0.13984,1.05833 0.85817,1.05833 0.54835,0 0.93902,0.25473 1.08211,0.70556 0.21131,0.66579 0.5556,0.70825 6.10919,0.75334 3.23689,0.0263 9.06025,0.15583 12.94081,0.28789 6.88723,0.23439 6.74836,0.24347 -5.82083,0.38064 -7.08202,0.0773 -16.01166,0.14617 -19.84364,0.15307 -5.33186,0.01 -6.96728,0.11607 -6.96737,0.45353 -8e-5,0.34946 -5.21666,0.42317 -25.13552,0.35519 l -25.13542,-0.0858 24.9185,-0.0929 z m 38.05233,-1.85213 c 0,-0.19403 -0.23812,-0.35278 -0.52916,-0.35278 -0.29104,0 -0.52917,0.15875 -0.52917,0.35278 0,0.19403 0.23813,0.35278 0.52917,0.35278 0.29104,0 0.52916,-0.15875 0.52916,-0.35278 z m -13.75833,-0.83875 c 0,-0.0733 -0.27781,-0.35107 -0.61736,-0.61736 -0.55953,-0.43881 -0.572,-0.42634 -0.1332,0.13319 0.46086,0.58764 0.75056,0.77452 0.75056,0.48417 z m -1.76389,-2.33625 c -0.41448,-0.58209 -0.83297,-1.05834 -0.92999,-1.05834 -0.097,0 0.16274,0.47625 0.57721,1.05834 0.41448,0.58208 0.83298,1.05833 0.92999,1.05833 0.097,0 -0.16273,-0.47625 -0.57721,-1.05833 z m 15.52222,-6.87917 c 0,-0.29104 -0.23812,-0.52917 -0.52916,-0.52917 -0.29104,0 -0.52917,-0.15875 -0.52917,-0.35277 0,-0.19403 -0.23812,-0.35278 -0.52917,-0.35278 -0.29104,0 -0.52916,0.23812 -0.52916,0.52917 0,0.29104 0.23812,0.52916 0.52916,0.52916 0.29105,0 0.52917,0.15875 0.52917,0.35278 0,0.19403 0.23813,0.35278 0.52917,0.35278 0.29104,0 0.52916,-0.23813 0.52916,-0.52917 z m -21.16666,-1.36792 c 0,-0.0732 -0.27781,-0.35106 -0.61736,-0.61736 -0.55953,-0.43881 -0.57201,-0.42633 -0.1332,0.1332 0.46086,0.58764 0.75056,0.77451 0.75056,0.48416 z m 21.16666,-4.27652 c 0,-0.29105 -0.23812,-0.52917 -0.52916,-0.52917 -0.29104,0 -0.52917,0.23812 -0.52917,0.52917 0,0.29104 0.23813,0.52916 0.52917,0.52916 0.29104,0 0.52916,-0.23812 0.52916,-0.52916 z m 0.70556,-13.75834 c 0,-0.29104 -0.15875,-0.52916 -0.35278,-0.52916 -0.19403,0 -0.35278,0.23812 -0.35278,0.52916 0,0.29105 0.15875,0.52917 0.35278,0.52917 0.19403,0 0.35278,-0.23812 0.35278,-0.52917 z m -0.50397,-7.38313 c 0.80789,-0.80789 0.61926,-1.6127 -0.37797,-1.6127 -0.48507,0 -0.88195,-0.15875 -0.88195,-0.35278 0,-0.19403 -0.23812,-0.35278 -0.52917,-0.35278 -0.29104,0 -0.52916,0.15875 -0.52916,0.35278 0,0.19403 0.23812,0.35278 0.52916,0.35278 0.35278,0 0.52917,0.35278 0.52917,1.05833 0,1.14697 0.46342,1.35087 1.25992,0.55437 z m 0.85675,13.02758 c 0,-0.29104 -0.23813,-0.52917 -0.52917,-0.52917 -0.29104,0 -0.52917,-0.23812 -0.52917,-0.52917 0,-0.29104 0.23813,-0.52916 0.52917,-0.52916 0.29104,0 0.52917,-0.23813 0.52917,-0.52917 0,-0.29104 0.15875,-0.52917 0.35278,-0.52917 0.19402,0 0.35277,0.23813 0.35277,0.52917 0,0.29104 -0.15875,0.52917 -0.35277,0.52917 -0.19403,0 -0.35278,0.23812 -0.35278,0.52916 0,0.29105 0.15875,0.52917 0.35278,0.52917 0.19402,0 0.35277,0.23813 0.35277,0.52917 0,0.29104 -0.15875,0.52916 -0.35277,0.52916 -0.19403,0 -0.35278,-0.23812 -0.35278,-0.52916 z"
         id="path413" /><path
         style="fill:#feac36;stroke-width:0.352778"
         d="m 424.24942,310.10888 c 9e-5,-0.33746 1.63551,-0.44392 6.96736,-0.45353 3.83199,-0.007 12.76163,-0.0758 19.84364,-0.15307 12.5692,-0.13717 12.70807,-0.14625 5.82084,-0.38064 -3.88056,-0.13206 -9.70392,-0.26161 -12.94081,-0.28789 -5.55359,-0.0451 -5.89788,-0.0876 -6.10919,-0.75334 -0.14309,-0.45083 -0.53376,-0.70556 -1.08211,-0.70556 -0.71834,0 -0.85817,-0.17244 -0.85817,-1.05833 0,-0.70555 0.17639,-1.05833 0.52917,-1.05833 0.29398,0 0.52916,-0.31358 0.52916,-0.70556 0,-0.38805 0.15875,-0.70555 0.35278,-0.70555 0.19403,0 0.35278,0.55562 0.35278,1.23472 0,0.86234 0.15959,1.23472 0.52917,1.23472 0.42333,0 0.52916,-0.52917 0.52916,-2.64583 0,-2.53528 -0.40812,-3.43315 -0.88194,-1.94028 -0.12317,0.38806 -0.37199,0.70556 -0.55294,0.70556 -0.18095,0 -0.32901,0.23812 -0.32901,0.52916 0,0.29104 -0.23812,0.52917 -0.52916,0.52917 -0.32926,0 -0.52917,-0.33318 -0.52917,-0.88195 0,-0.54876 0.19991,-0.88194 0.52917,-0.88194 0.29104,0 0.52916,-0.23813 0.52916,-0.52917 0,-0.29104 0.15875,-0.52916 0.35278,-0.52916 0.19403,0 0.35278,-0.23813 0.35278,-0.52917 0,-0.29104 0.23812,-0.52917 0.52917,-0.52917 0.29104,0 0.52916,-0.15875 0.52916,-0.35277 0,-0.19403 -0.14154,-0.35278 -0.31453,-0.35278 -0.173,0 -0.41414,-0.39688 -0.53589,-0.88195 -0.1617,-0.64426 -0.45722,-0.88194 -1.09658,-0.88194 -0.73728,0 -0.87522,-0.1668 -0.87522,-1.05833 0,-0.70556 0.17639,-1.05834 0.52917,-1.05834 0.29104,0 0.52916,0.23813 0.52916,0.52917 0,0.32926 0.33318,0.52917 0.88195,0.52917 0.92566,0 1.23163,-0.83635 0.44097,-1.20533 -0.35278,-0.16463 -0.35278,-0.24694 0,-0.41157 0.56747,-0.26482 0.57591,-2.15988 0.0104,-2.34837 -0.55989,-0.18663 -0.53244,-4.23921 0.03,-4.42669 0.54553,-0.18184 0.5032,-0.72798 -0.10345,-1.33463 -0.85548,-0.85551 -1.2599,-0.56433 -1.2599,0.90714 0,1.01914 -0.14699,1.41111 -0.52916,1.41111 -0.39982,0 -0.52917,-0.43117 -0.52917,-1.76389 0,-1.33271 0.12935,-1.76389 0.52917,-1.76389 0.29104,0 0.52916,-0.23812 0.52916,-0.52916 0,-0.29104 -0.23812,-0.52917 -0.52916,-0.52917 -0.29104,0 -0.52917,-0.23812 -0.52917,-0.52917 0,-0.29104 0.23813,-0.52916 0.52917,-0.52916 0.32926,0 0.52916,-0.33318 0.52916,-0.88195 0,-0.54876 0.19991,-0.88194 0.52917,-0.88194 0.32926,0 0.52917,-0.33318 0.52917,-0.88195 0,-0.48506 0.15875,-0.88194 0.35278,-0.88194 0.19402,0 0.35277,-0.39687 0.35277,-0.88194 0,-0.48507 -0.15875,-0.88195 -0.35277,-0.88195 -0.19403,0 -0.35278,-0.23812 -0.35278,-0.52917 0,-0.29104 -0.23813,-0.52916 -0.52917,-0.52916 -0.29104,0 -0.52917,-0.23813 -0.52917,-0.52917 0,-0.29104 0.23813,-0.52917 0.52917,-0.52917 0.29104,0 0.52917,0.15875 0.52917,0.35278 0,0.19403 0.15875,0.35278 0.35278,0.35278 0.19402,0 0.35277,-0.79375 0.35277,-1.76389 0,-0.97014 -0.15875,-1.76389 -0.35277,-1.76389 -0.19403,0 -0.35278,0.23813 -0.35278,0.52917 0,0.29104 -0.23813,0.52917 -0.52917,0.52917 -0.29104,0 -0.52917,-0.17009 -0.52917,-0.37798 0,-0.48841 0.8975,-1.38591 1.38592,-1.38591 0.53075,0 0.47389,-2.01895 -0.063,-2.2368 -0.34314,-0.13924 -0.33506,-0.2532 0.0364,-0.51371 0.66437,-0.46588 -2.83172,-0.71842 -13.70657,-0.99007 -4.94771,-0.12359 -9.06198,-0.28502 -9.14282,-0.35873 -0.0808,-0.0737 2.77665,-0.13629 6.35,-0.13905 3.57334,-0.003 10.00143,-0.10515 14.28462,-0.22752 6.42912,-0.18367 7.86047,-0.13665 8.2051,0.26961 0.44739,0.52739 4.12429,5.62505 7.75493,10.75145 10.08117,14.23446 14.49038,20.47823 17.52734,24.82006 1.94028,2.77395 3.89907,5.50118 4.35288,6.06053 l 0.82512,1.017 h -25.25498 c -19.96884,0 -25.25494,-0.0923 -25.25486,-0.44097 z m 14.46378,-25.48819 c 0,-0.29104 -0.15875,-0.52917 -0.35277,-0.52917 -0.19403,0 -0.35278,-0.23812 -0.35278,-0.52917 0,-0.29104 0.15875,-0.52916 0.35278,-0.52916 0.19402,0 0.35277,-0.23813 0.35277,-0.52917 0,-0.29104 -0.15875,-0.52917 -0.35277,-0.52917 -0.19403,0 -0.35278,0.23813 -0.35278,0.52917 0,0.29104 -0.23813,0.52917 -0.52917,0.52917 -0.29104,0 -0.52917,0.23812 -0.52917,0.52916 0,0.29105 0.23813,0.52917 0.52917,0.52917 0.29104,0 0.52917,0.23813 0.52917,0.52917 0,0.29104 0.15875,0.52916 0.35278,0.52916 0.19402,0 0.35277,-0.23812 0.35277,-0.52916 z m -15.21444,23.90069 c -0.43881,-0.55952 -0.42633,-0.572 0.13319,-0.13319 0.58764,0.46086 0.77452,0.75055 0.48417,0.75055 -0.0733,0 -0.35107,-0.27781 -0.61736,-0.61736 z m 12.39222,-0.0882 c 0,-0.19403 0.23813,-0.35278 0.52917,-0.35278 0.29104,0 0.52916,0.15875 0.52916,0.35278 0,0.19403 -0.23812,0.35278 -0.52916,0.35278 -0.29104,0 -0.52917,-0.15875 -0.52917,-0.35278 z m -13.45056,-1.32292 c -0.4388,-0.55953 -0.42633,-0.572 0.1332,-0.13319 0.58764,0.46085 0.77452,0.75055 0.48417,0.75055 -0.0733,0 -0.35107,-0.27781 -0.61737,-0.61736 z m -1.36611,-1.85208 c -0.41447,-0.58209 -0.67422,-1.05834 -0.57721,-1.05834 0.097,0 0.51551,0.47625 0.92999,1.05834 0.41448,0.58208 0.67423,1.05833 0.57721,1.05833 -0.097,0 -0.51551,-0.47625 -0.92999,-1.05833 z m 14.81667,-6.70278 c 0,-0.19403 -0.23812,-0.35278 -0.52917,-0.35278 -0.29104,0 -0.52916,-0.23812 -0.52916,-0.52916 0,-0.29105 0.23812,-0.52917 0.52916,-0.52917 0.29105,0 0.52917,0.15875 0.52917,0.35278 0,0.19402 0.23813,0.35277 0.52917,0.35277 0.29104,0 0.52916,0.23813 0.52916,0.52917 0,0.29104 -0.23812,0.52917 -0.52916,0.52917 -0.29104,0 -0.52917,-0.15875 -0.52917,-0.35278 z m -20.85889,-2.02847 c -0.43881,-0.55953 -0.42633,-0.57201 0.1332,-0.1332 0.58764,0.46086 0.77451,0.75056 0.48416,0.75056 -0.0733,0 -0.35106,-0.27781 -0.61736,-0.61736 z m 20.85889,-3.79236 c 0,-0.29105 0.23813,-0.52917 0.52917,-0.52917 0.29104,0 0.52916,0.23812 0.52916,0.52917 0,0.29104 -0.23812,0.52916 -0.52916,0.52916 -0.29104,0 -0.52917,-0.23812 -0.52917,-0.52916 z m -25.445,-2.55764 c -0.43881,-0.55953 -0.42633,-0.57201 0.1332,-0.1332 0.58764,0.46086 0.77451,0.75056 0.48416,0.75056 -0.0732,0 -0.35107,-0.27781 -0.61736,-0.61736 z m 26.50333,-11.2007 c 0,-0.29104 0.15875,-0.52916 0.35278,-0.52916 0.19403,0 0.35278,0.23812 0.35278,0.52916 0,0.29105 -0.15875,0.52917 -0.35278,0.52917 -0.19403,0 -0.35278,-0.23812 -0.35278,-0.52917 z m -1.05833,-7.9375 c 0,-0.70555 -0.17639,-1.05833 -0.52917,-1.05833 -0.29104,0 -0.52916,-0.15875 -0.52916,-0.35278 0,-0.19403 0.23812,-0.35278 0.52916,-0.35278 0.29105,0 0.52917,0.15875 0.52917,0.35278 0,0.19403 0.39688,0.35278 0.88195,0.35278 0.99723,0 1.18586,0.80481 0.37797,1.6127 -0.7965,0.7965 -1.25992,0.5926 -1.25992,-0.55437 z"
         id="path411" /><path
         style="fill:#fd6068;stroke-width:0.352778"
         d="m 344.16876,353.42268 c 0,-0.0913 1.23031,-1.89788 2.73403,-4.01454 8.91654,-12.55115 12.25902,-17.40066 12.25902,-17.78623 0,-0.23901 0.20521,-0.65109 0.456,-0.91575 0.52914,-0.55838 5.89693,-8.0559 7.99243,-11.16353 0.78614,-1.16585 2.5406,-3.66281 3.8988,-5.54881 l 2.46944,-3.42908 24.76182,-0.007 c 16.60122,-0.005 24.83576,0.1122 24.98618,0.35559 0.1234,0.19966 -0.58684,1.50935 -1.5783,2.91041 -0.99146,1.40107 -2.96146,4.21427 -4.37777,6.25156 -1.41631,2.03729 -4.69298,6.72042 -7.28147,10.40694 -2.5885,3.68653 -6.25537,8.92528 -8.1486,11.64167 -1.89322,2.71639 -4.49424,6.40733 -5.78003,8.20208 l -2.3378,3.2632 h -25.02688 c -13.76478,0 -25.02687,-0.0747 -25.02687,-0.16606 z"
         id="path409" /><path
         style="fill:#58f55e;stroke-width:0.352778"
         d="m 373.39248,309.21057 c -0.45381,-0.54258 -1.85698,-2.46513 -3.11817,-4.27233 -1.26118,-1.8072 -3.98901,-5.68921 -6.06184,-8.62669 -2.07283,-2.93747 -4.10132,-5.81711 -4.50776,-6.3992 -0.95007,-1.36065 -6.31409,-8.992 -11.48497,-16.33958 -2.22804,-3.16593 -4.05098,-5.90437 -4.05098,-6.08541 0,-0.20062 9.78182,-0.32917 25.04722,-0.32917 14.80384,0 25.04722,0.13123 25.04722,0.32089 0,0.17649 0.99219,1.67318 2.20486,3.32597 1.21268,1.65278 3.47487,4.85222 5.02709,7.10987 1.55222,2.25764 3.3131,4.7694 3.91305,5.58168 1.17103,1.58543 7.67602,10.80172 12.49622,17.70464 1.62583,2.32834 3.63917,5.13409 4.47409,6.23501 0.83491,1.10093 1.51803,2.17249 1.51803,2.38125 0,0.26732 -7.346,0.37958 -24.83948,0.37958 h -24.83947 z"
         id="path407" /><path
         style="fill:#4f2751;stroke-width:0.352778"
         d="m 341.8757,352.07539 c -3.15814,-3.1768 -17.07017,-16.46947 -18.93295,-18.09006 -1.09978,-0.9568 -2.0126,-1.93808 -2.02847,-2.18061 -0.0228,-0.34774 4.03622,-0.44098 19.19754,-0.44098 10.57451,0 19.22252,0.11907 19.2178,0.26459 -0.005,0.14552 -2.10816,3.22087 -4.67431,6.83412 -2.56614,3.61324 -6.01509,8.49246 -7.66433,10.8427 -1.64923,2.35024 -3.15736,4.25438 -3.35139,4.23142 -0.19402,-0.023 -0.98777,-0.68049 -1.76389,-1.46118 z m 53.57619,-0.16234 c 0.69096,-0.92163 1.85377,-2.54882 2.58404,-3.61597 1.42257,-2.07882 4.93531,-7.10361 12.45436,-17.81528 2.58775,-3.68653 5.86381,-8.36965 7.28012,-10.40695 1.41631,-2.03729 3.37409,-4.8335 4.35062,-6.2138 0.97653,-1.3803 1.77551,-2.68999 1.77551,-2.91042 0,-0.29548 6.67814,-0.40078 25.41753,-0.40078 20.79667,0 25.36624,0.0836 25.13541,0.45975 -0.4231,0.68951 -4.87916,7.06783 -7.31347,10.46837 -1.17748,1.64483 -2.29961,3.24693 -2.49364,3.56021 -0.19403,0.31328 -0.82903,1.22776 -1.41111,2.03217 -0.58209,0.80441 -2.96334,4.1674 -5.29167,7.4733 -2.32833,3.30591 -6.29708,8.9387 -8.81944,12.51731 l -4.58611,6.50658 -25.16922,0.0106 -25.16922,0.0106 z"
         id="path405" /></g></g></svg>
